<svg width="87.000000" height="25.000000" viewBox="0 0 87 25" fill="none" xmlns="http://www.w3.org/2000/svg" xmlns:xlink="http://www.w3.org/1999/xlink">
	<desc>
			Created with Pixso.
	</desc>
	<defs>
		<linearGradient id="paint_linear_51_407_0" x1="16.000000" y1="0.000000" x2="16.000000" y2="32.000000" gradientUnits="userSpaceOnUse">
			<stop stop-color="#FDC830"/>
			<stop offset="1.000000" stop-color="#F37335"/>
		</linearGradient>
	</defs>
	<path id="Rolling" d="M52.5 3.84C52.5 2.71 53.39 1.89 54.52 1.89C55.65 1.89 56.56 2.71 56.56 3.84C56.56 4.96 55.65 5.8 54.52 5.8C53.39 5.8 52.5 4.96 52.5 3.84ZM11.68 13.46L11.68 19.63L7.99 19.63L7.99 2.54L15.26 2.54C18.62 2.54 21 4.77 21 7.99C21 10.2 19.75 11.95 17.85 12.81L21.12 19.63L17.11 19.63L14.4 13.46L11.68 13.46ZM41.6 19.94C39.3 19.94 37.79 18.74 37.79 16.15L37.79 2.54L41.44 2.54L41.44 15.48C41.44 16.15 41.56 16.77 42.49 16.77C42.71 16.77 43 16.75 43.31 16.63L43.31 19.63C42.85 19.82 42.35 19.94 41.6 19.94ZM49.01 19.94C46.71 19.94 45.19 18.74 45.19 16.15L45.19 2.54L48.84 2.54L48.84 15.48C48.84 16.15 48.96 16.77 49.9 16.77C50.11 16.77 50.4 16.75 50.71 16.63L50.71 19.63C50.26 19.82 49.75 19.94 49.01 19.94ZM14.68 5.73L11.68 5.73L11.68 10.41L14.64 10.41C16.17 10.41 17.18 9.43 17.18 8.01C17.18 6.64 16.22 5.73 14.68 5.73ZM22.35 13.48C22.35 9.84 25.11 7.05 28.95 7.05C32.79 7.05 35.55 9.84 35.55 13.48C35.55 17.11 32.79 19.94 28.95 19.94C25.11 19.94 22.35 17.11 22.35 13.48ZM59.71 19.65L59.71 7.34L63.21 7.34L63.21 8.92C64 7.68 65.2 7.05 66.86 7.05C69.81 7.05 71.63 8.97 71.63 12.16L71.63 19.65L67.99 19.65L67.99 12.72C67.99 11.11 67.12 10.27 65.78 10.27C64.19 10.27 63.35 11.64 63.35 13.24L63.35 19.65L59.71 19.65ZM79.58 24.74C76 24.74 73.58 23.42 73.58 21.4C73.58 20.23 74.39 19.44 75.52 18.98C74.82 18.5 74.54 17.92 74.54 17.16C74.54 16.29 75.16 15.52 76.1 15.02C74.82 14.23 73.98 12.96 73.98 11.42C73.98 9 76.22 7.05 79.17 7.05C79.74 7.05 80.3 7.15 80.85 7.34L85.89 7.34L85.89 10.05L84.06 10.05C84.26 10.48 84.35 10.94 84.35 11.42C84.35 13.92 82.07 15.81 79.12 15.81C78.9 15.81 78.66 15.81 78.45 15.79C77.94 15.98 77.7 16.22 77.7 16.51C77.7 16.96 78.18 17.13 78.69 17.13L81.76 17.13C84.28 17.13 86.01 18.64 86.01 20.78C86.01 23.01 83.49 24.74 79.58 24.74ZM56.39 19.65L52.74 19.65L52.74 7.34L56.39 7.34L56.39 19.65ZM81.14 11.42C81.14 10.44 80.3 9.69 79.17 9.69C78.04 9.69 77.2 10.44 77.2 11.42C77.2 12.38 78.04 13.17 79.17 13.17C80.3 13.17 81.14 12.38 81.14 11.42ZM31.85 13.48C31.85 11.56 30.6 10.29 28.95 10.29C27.29 10.29 26.04 11.56 26.04 13.48C26.04 15.4 27.29 16.7 28.95 16.7C30.6 16.7 31.85 15.4 31.85 13.48ZM77.85 19.87C77.46 20.06 77.1 20.37 77.1 20.85C77.1 21.6 78.09 22 79.6 22C81.52 22 82.46 21.57 82.46 20.83C82.46 20.18 81.81 19.87 81.11 19.87L77.85 19.87Z" fill="#FFFFFF" fill-opacity="1.000000" fill-rule="evenodd"/>
</svg>
