<svg width="24.000000" height="24.000000" viewBox="0 0 24 24" fill="none" xmlns="http://www.w3.org/2000/svg" xmlns:xlink="http://www.w3.org/1999/xlink">
	<desc>
			Created with Pixso.
	</desc>
	<defs>
		<clipPath id="clip51_432">
			<rect id="Frame" width="24.000000" height="24.000000" fill="white" fill-opacity="0"/>
		</clipPath>
	</defs>
	<rect id="Frame" width="24.000000" height="24.000000" fill="#FFFFFF" fill-opacity="0"/>
	<g clip-path="url(#clip51_432)">
		<path id="Vector" d="M21.96 6.54C21.87 6.19 21.7 5.87 21.47 5.61C21.23 5.34 20.94 5.14 20.6 5.01C17.39 3.77 12.27 3.78 12 3.78C11.72 3.78 6.6 3.77 3.39 5.01C3.05 5.14 2.76 5.34 2.52 5.61C2.29 5.87 2.12 6.19 2.03 6.54C1.78 7.47 1.5 9.17 1.5 12C1.5 14.82 1.78 16.52 2.03 17.45C2.12 17.8 2.29 18.12 2.52 18.38C2.76 18.65 3.05 18.85 3.39 18.98C6.46 20.17 11.28 20.21 11.93 20.21L12.06 20.21C12.71 20.21 17.53 20.17 20.6 18.98C20.94 18.85 21.23 18.65 21.47 18.38C21.7 18.12 21.87 17.8 21.96 17.45C22.21 16.52 22.5 14.82 22.5 12C22.5 9.17 22.21 7.47 21.96 6.54ZM15.2 12.31L10.7 15.31C10.65 15.34 10.58 15.37 10.51 15.37C10.45 15.37 10.38 15.36 10.32 15.33C10.26 15.29 10.21 15.25 10.17 15.19C10.14 15.13 10.12 15.06 10.12 15L10.12 9C10.12 8.93 10.14 8.86 10.17 8.8C10.21 8.74 10.26 8.7 10.32 8.66C10.38 8.63 10.45 8.62 10.51 8.62C10.58 8.62 10.65 8.65 10.7 8.68L15.2 11.68C15.25 11.72 15.3 11.76 15.33 11.82C15.35 11.87 15.37 11.93 15.37 12C15.37 12.06 15.35 12.12 15.33 12.17C15.3 12.23 15.25 12.27 15.2 12.31Z" fill="#EBEBF5" fill-opacity="0.600000" fill-rule="nonzero"/>
	</g>
</svg>
