<svg width="24.000000" height="24.000000" viewBox="0 0 24 24" fill="none" xmlns="http://www.w3.org/2000/svg" xmlns:xlink="http://www.w3.org/1999/xlink">
	<desc>
			Created with Pixso.
	</desc>
	<defs>
		<clipPath id="clip51_426">
			<rect id="Frame" width="24.000000" height="24.000000" fill="white" fill-opacity="0"/>
		</clipPath>
	</defs>
	<rect id="Frame" width="24.000000" height="24.000000" fill="#FFFFFF" fill-opacity="0"/>
	<g clip-path="url(#clip51_426)">
		<path id="Vector" d="M12.75 12C12.75 15.51 10.05 18.37 6.75 18.37C3.44 18.37 0.75 15.51 0.75 12C0.75 8.48 3.44 5.62 6.75 5.62C10.05 5.62 12.75 8.48 12.75 12ZM22.5 6C22.3 6 22.11 6.07 21.96 6.21C21.82 6.36 21.75 6.55 21.75 6.75L21.75 17.25C21.75 17.44 21.82 17.63 21.96 17.78C22.11 17.92 22.3 18 22.5 18C22.69 18 22.88 17.92 23.03 17.78C23.17 17.63 23.25 17.44 23.25 17.25L23.25 6.75C23.25 6.55 23.17 6.36 23.03 6.21C22.88 6.07 22.69 6 22.5 6ZM17.25 6C16.71 6 15.71 6.25 14.96 7.99C14.5 9.07 14.25 10.49 14.25 12C14.25 13.5 14.5 14.92 14.96 16C15.71 17.74 16.71 18 17.25 18C17.78 18 18.78 17.74 19.53 16C19.99 14.92 20.25 13.5 20.25 12C20.25 10.49 19.99 9.07 19.53 7.99C18.78 6.25 17.78 6 17.25 6Z" fill="#EBEBF5" fill-opacity="0.600000" fill-rule="nonzero"/>
	</g>
</svg>
