<svg width="24.000000" height="24.000000" viewBox="0 0 24 24" fill="none" xmlns="http://www.w3.org/2000/svg" xmlns:xlink="http://www.w3.org/1999/xlink">
	<desc>
			Created with Pixso.
	</desc>
	<defs>
		<clipPath id="clip51_414">
			<rect id="Frame" width="24.000000" height="24.000000" fill="white" fill-opacity="0"/>
		</clipPath>
	</defs>
	<rect id="Frame" width="24.000000" height="24.000000" fill="#FFFFFF" fill-opacity="0"/>
	<g clip-path="url(#clip51_414)">
		<path id="Vector" d="M12 7.5C11.11 7.5 10.24 7.76 9.49 8.25C8.75 8.75 8.18 9.45 7.84 10.27C7.5 11.1 7.41 12 7.58 12.87C7.76 13.75 8.18 14.55 8.81 15.18C9.44 15.81 10.24 16.24 11.12 16.41C11.99 16.58 12.89 16.49 13.72 16.15C14.54 15.81 15.24 15.24 15.74 14.5C16.23 13.76 16.5 12.89 16.5 12C16.49 10.8 16.02 9.66 15.18 8.81C14.33 7.97 13.19 7.5 12 7.5ZM12 15C11.4 15 10.82 14.82 10.33 14.49C9.83 14.16 9.45 13.69 9.22 13.14C9 12.59 8.94 11.99 9.05 11.41C9.17 10.83 9.45 10.29 9.87 9.87C10.29 9.45 10.83 9.17 11.41 9.05C11.99 8.94 12.59 9 13.14 9.22C13.69 9.45 14.16 9.83 14.49 10.33C14.82 10.82 15 11.4 15 12C14.99 12.79 14.68 13.55 14.12 14.12C13.55 14.68 12.79 14.99 12 15ZM16.12 2.62L7.87 2.62C6.48 2.62 5.14 3.18 4.16 4.16C3.18 5.14 2.62 6.48 2.62 7.87L2.62 16.12C2.62 17.51 3.18 18.85 4.16 19.83C5.14 20.81 6.48 21.37 7.87 21.37L16.12 21.37C17.51 21.37 18.85 20.81 19.83 19.83C20.81 18.85 21.37 17.51 21.37 16.12L21.37 7.87C21.37 6.48 20.81 5.14 19.83 4.16C18.85 3.18 17.51 2.62 16.12 2.62ZM19.87 16.12C19.87 17.11 19.47 18.07 18.77 18.77C18.07 19.47 17.11 19.87 16.12 19.87L7.87 19.87C6.88 19.87 5.92 19.47 5.22 18.77C4.52 18.07 4.12 17.11 4.12 16.12L4.12 7.87C4.12 6.88 4.52 5.92 5.22 5.22C5.92 4.52 6.88 4.12 7.87 4.12L16.12 4.12C17.11 4.12 18.07 4.52 18.77 5.22C19.47 5.92 19.87 6.88 19.87 7.87L19.87 16.12ZM18 7.12C18 7.34 17.93 7.56 17.81 7.75C17.68 7.93 17.51 8.07 17.3 8.16C17.09 8.24 16.87 8.27 16.65 8.22C16.43 8.18 16.23 8.07 16.07 7.92C15.92 7.76 15.81 7.56 15.77 7.34C15.72 7.12 15.75 6.9 15.83 6.69C15.92 6.48 16.06 6.31 16.25 6.18C16.43 6.06 16.65 6 16.87 6C17.17 6 17.45 6.11 17.67 6.32C17.88 6.54 18 6.82 18 7.12Z" fill="#EBEBF5" fill-opacity="0.600000" fill-rule="nonzero"/>
	</g>
</svg>
