<svg width="24.000000" height="24.000000" viewBox="0 0 24 24" fill="none" xmlns="http://www.w3.org/2000/svg" xmlns:xlink="http://www.w3.org/1999/xlink">
	<desc>
			Created with Pixso.
	</desc>
	<defs>
		<clipPath id="clip51_428">
			<rect id="Frame" width="24.000000" height="24.000000" fill="white" fill-opacity="0"/>
		</clipPath>
	</defs>
	<rect id="Frame" width="24.000000" height="24.000000" fill="#FFFFFF" fill-opacity="0"/>
	<g clip-path="url(#clip51_428)">
		<path id="Vector" d="M23.03 7.28L20.24 10.06C20.17 12.81 19.12 15.5 17.33 17.47C15.24 19.77 12.36 20.99 9 20.99C5.72 20.99 4.03 19.35 3.96 19.28C3.87 19.18 3.8 19.06 3.77 18.93C3.73 18.8 3.74 18.66 3.78 18.53C3.82 18.4 3.89 18.28 3.99 18.19C4.09 18.1 4.21 18.04 4.35 18.01C5.15 17.85 7.13 17.22 7.98 16.08C7.07 15.56 6.27 14.87 5.6 14.07C3.25 11.21 3.3 7.62 3.76 5.11C3.78 4.97 3.85 4.84 3.95 4.73C4.05 4.63 4.17 4.55 4.31 4.52C4.45 4.48 4.6 4.49 4.73 4.53C4.87 4.58 4.99 4.66 5.08 4.78C5.11 4.81 7.57 7.83 11.25 8.82L11.25 8.25C11.25 7.04 11.74 5.9 12.59 5.05C13.45 4.21 14.6 3.74 15.8 3.75C16.58 3.76 17.35 3.97 18.02 4.36C18.69 4.76 19.25 5.32 19.64 5.99L22.5 5.99C22.64 5.99 22.79 6.04 22.91 6.12C23.04 6.2 23.13 6.32 23.19 6.46C23.24 6.59 23.26 6.75 23.23 6.89C23.2 7.04 23.13 7.17 23.03 7.28Z" fill="#EBEBF5" fill-opacity="0.600000" fill-rule="nonzero"/>
	</g>
</svg>
