<svg width="20.000000" height="20.000000" viewBox="0 0 20 20" fill="none" xmlns="http://www.w3.org/2000/svg" xmlns:xlink="http://www.w3.org/1999/xlink">
	<desc>
			Created with Pixso.
	</desc>
	<defs>
		<clipPath id="clip1_34">
			<rect id="Frame" width="20.000000" height="20.000000" fill="white" fill-opacity="0"/>
		</clipPath>
	</defs>
	<rect id="Frame" width="20.000000" height="20.000000" fill="#FFFFFF" fill-opacity="0"/>
	<g clip-path="url(#clip1_34)">
		<path id="Vector" d="M16.7 9.8L7.95 19.17C7.86 19.27 7.74 19.34 7.6 19.36C7.47 19.38 7.33 19.36 7.21 19.3C7.09 19.24 6.99 19.14 6.93 19.02C6.87 18.89 6.86 18.76 6.88 18.62L8.03 12.89L3.53 11.2C3.43 11.17 3.34 11.11 3.28 11.03C3.21 10.96 3.16 10.86 3.14 10.76C3.11 10.66 3.11 10.56 3.14 10.46C3.17 10.36 3.22 10.27 3.29 10.19L12.04 0.82C12.13 0.72 12.25 0.65 12.39 0.63C12.52 0.61 12.66 0.63 12.78 0.69C12.9 0.75 13 0.85 13.06 0.97C13.12 1.1 13.13 1.23 13.11 1.37L11.96 7.1L16.46 8.78C16.56 8.82 16.65 8.88 16.71 8.96C16.78 9.03 16.83 9.13 16.85 9.23C16.88 9.33 16.88 9.43 16.85 9.53C16.82 9.63 16.77 9.72 16.7 9.8L16.7 9.8Z" fill="#000000" fill-opacity="1.000000" fill-rule="nonzero"/>
	</g>
</svg>
