<svg width="24.000000" height="24.000000" viewBox="0 0 24 24" fill="none" xmlns="http://www.w3.org/2000/svg" xmlns:xlink="http://www.w3.org/1999/xlink">
	<desc>
			Created with Pixso.
	</desc>
	<defs>
		<clipPath id="clip51_430">
			<rect id="Frame" width="24.000000" height="24.000000" fill="white" fill-opacity="0"/>
		</clipPath>
	</defs>
	<rect id="Frame" width="24.000000" height="24.000000" fill="#FFFFFF" fill-opacity="0"/>
	<g clip-path="url(#clip51_430)">
		<path id="Vector" d="M21.68 2.97C21.47 2.79 21.22 2.67 20.95 2.63C20.68 2.58 20.4 2.61 20.15 2.71L2.85 9.51C2.54 9.63 2.29 9.84 2.12 10.12C1.95 10.39 1.87 10.71 1.9 11.04C1.93 11.36 2.06 11.66 2.28 11.91C2.49 12.15 2.78 12.31 3.1 12.37L7.5 13.25L7.5 18.74C7.49 19.04 7.58 19.33 7.75 19.58C7.91 19.82 8.15 20.02 8.42 20.13C8.69 20.24 9 20.27 9.29 20.22C9.58 20.16 9.85 20.01 10.06 19.8L12.49 17.37L16.18 20.62C16.45 20.86 16.8 21 17.17 21C17.32 21 17.48 20.97 17.63 20.92C17.88 20.84 18.1 20.7 18.28 20.51C18.45 20.32 18.58 20.08 18.63 19.83L22.16 4.44C22.22 4.18 22.21 3.9 22.12 3.64C22.04 3.38 21.88 3.15 21.68 2.97L21.68 2.97ZM17.17 19.49L9.45 12.7L20.57 4.66L17.17 19.49Z" fill="#EBEBF5" fill-opacity="0.600000" fill-rule="nonzero"/>
	</g>
</svg>
