<svg width="24.000000" height="24.000000" viewBox="0 0 24 24" fill="none" xmlns="http://www.w3.org/2000/svg" xmlns:xlink="http://www.w3.org/1999/xlink">
	<desc>
			Created with Pixso.
	</desc>
	<defs>
		<clipPath id="clip1_66">
			<rect id="Frame" width="24.000000" height="24.000000" fill="white" fill-opacity="0"/>
		</clipPath>
	</defs>
	<rect id="Frame" width="24.000000" height="24.000000" fill="#FFFFFF" fill-opacity="0"/>
	<g clip-path="url(#clip1_66)">
		<path id="Vector" d="M21.79 20.2L17.98 16.39C19.38 14.58 20.04 12.3 19.83 10.02C19.62 7.73 18.54 5.62 16.82 4.1C15.1 2.59 12.87 1.78 10.58 1.85C8.29 1.93 6.11 2.87 4.49 4.49C2.87 6.11 1.93 8.29 1.85 10.58C1.78 12.87 2.59 15.1 4.1 16.82C5.62 18.54 7.73 19.62 10.01 19.83C12.3 20.05 14.57 19.38 16.39 17.98L20.2 21.79C20.3 21.9 20.43 21.98 20.56 22.04C20.7 22.1 20.85 22.13 21 22.13C21.14 22.13 21.29 22.1 21.43 22.04C21.57 21.99 21.69 21.9 21.8 21.8C21.9 21.69 21.98 21.57 22.04 21.43C22.1 21.29 22.13 21.15 22.13 21C22.13 20.85 22.1 20.7 22.04 20.56C21.98 20.43 21.9 20.3 21.79 20.2L21.79 20.2ZM4.12 10.87C4.12 9.53 4.52 8.23 5.26 7.12C6 6.01 7.05 5.14 8.29 4.63C9.52 4.12 10.88 3.99 12.19 4.25C13.5 4.51 14.7 5.15 15.64 6.1C16.59 7.04 17.23 8.24 17.49 9.55C17.75 10.86 17.62 12.22 17.11 13.45C16.6 14.69 15.73 15.74 14.62 16.48C13.51 17.22 12.2 17.62 10.87 17.62C9.08 17.62 7.36 16.91 6.1 15.64C4.83 14.38 4.12 12.66 4.12 10.87Z" fill="#8E8E93" fill-opacity="1.000000" fill-rule="nonzero"/>
	</g>
</svg>
